<svg xmlns="http://www.w3.org/2000/svg" xmlns:xlink="http://www.w3.org/1999/xlink" width="500" zoomAndPan="magnify" viewBox="0 0 375 374.999991" height="500" preserveAspectRatio="xMidYMid meet" version="1.0"><defs><clipPath id="078c2bce53"><path d="M 0 131.507812 L 146 131.507812 L 146 200 L 0 200 Z M 0 131.507812 " clip-rule="nonzero"/></clipPath><clipPath id="7924a595bf"><path d="M 306 232 L 350 232 L 350 243.257812 L 306 243.257812 Z M 306 232 " clip-rule="nonzero"/></clipPath></defs><g clip-path="url(#078c2bce53)"><path fill="#000000" d="M 136.933594 132.492188 C 139.640625 132.050781 142.351562 131.546875 145.097656 131.511719 C 137.179688 132.730469 129.351562 134.660156 121.875 137.546875 C 114.976562 140.203125 108.464844 143.839844 102.582031 148.304688 C 97.105469 152.394531 92.203125 157.164062 87 161.578125 C 81.144531 166.429688 74.742188 170.59375 68.125 174.332031 C 53.9375 182.285156 38.773438 188.359375 23.335938 193.421875 C 16.679688 195.574219 9.96875 197.566406 3.183594 199.285156 C 2.183594 199.507812 1.203125 199.855469 0.171875 199.917969 C 4.042969 198.976562 7.84375 197.765625 11.660156 196.640625 C 27.835938 191.675781 43.75 185.691406 58.777344 177.882812 C 69.382812 172.347656 79.550781 165.851562 88.464844 157.847656 C 90.589844 156.011719 92.507812 153.949219 94.660156 152.140625 C 106.570312 141.839844 121.484375 135.285156 136.933594 132.492188 Z M 136.933594 132.492188 " fill-opacity="1" fill-rule="nonzero"/></g><path fill="#000000" d="M 174.457031 133.75 C 191.609375 132.625 208.832031 133.953125 225.824219 136.351562 C 230.265625 136.691406 234.414062 138.394531 238.597656 139.78125 C 251.707031 144.269531 264.671875 149.203125 277.242188 155.027344 C 266.507812 154.070312 255.722656 153.753906 244.945312 153.726562 C 232.0625 153.667969 219.1875 154.042969 206.324219 154.675781 C 203.261719 154.847656 200.164062 154.945312 197.136719 154.382812 C 194.730469 153.9375 192.359375 153.023438 190.476562 151.433594 C 185.359375 146.851562 180.496094 141.957031 174.964844 137.859375 C 174.011719 137.109375 172.820312 136.59375 172.136719 135.550781 C 171.871094 135.203125 171.824219 134.632812 172.226562 134.367188 C 172.867188 133.902344 173.691406 133.835938 174.457031 133.75 Z M 174.457031 133.75 " fill-opacity="1" fill-rule="nonzero"/><path fill="#000000" d="M 146.992188 136.863281 C 151.371094 136.414062 155.855469 136.625 160.097656 137.875 C 165.734375 139.480469 170.820312 142.722656 174.960938 146.832031 C 178.4375 150.257812 181.265625 154.289062 183.628906 158.542969 C 166.675781 159.230469 149.722656 159.855469 132.773438 160.550781 C 130.441406 155.492188 127.433594 150.679688 123.46875 146.734375 C 122.816406 146.046875 121.910156 145.5 121.621094 144.550781 C 121.570312 143.800781 122.398438 143.480469 122.953125 143.203125 C 125.816406 142 128.765625 141.007812 131.730469 140.089844 C 136.710938 138.578125 141.804688 137.367188 146.992188 136.863281 Z M 146.992188 136.863281 " fill-opacity="1" fill-rule="nonzero"/><path fill="#000000" d="M 113.816406 147.425781 C 114.933594 146.875 116.023438 146.105469 117.308594 146.054688 C 118.296875 146.160156 119.054688 146.886719 119.796875 147.476562 C 121.972656 149.433594 123.664062 151.855469 125.273438 154.28125 C 126.164062 155.664062 127.019531 157.070312 127.804688 158.519531 C 128.070312 159.046875 128.375 159.691406 128.109375 160.277344 C 127.714844 160.878906 126.90625 160.808594 126.277344 160.828125 C 121.628906 160.765625 116.980469 160.847656 112.335938 160.984375 C 107.890625 161.179688 103.433594 161.421875 99.035156 162.136719 C 97.433594 162.414062 95.8125 162.714844 94.320312 163.390625 C 97.710938 157.617188 103 153.175781 108.8125 149.964844 C 110.4375 149.035156 112.136719 148.253906 113.816406 147.425781 Z M 113.816406 147.425781 " fill-opacity="1" fill-rule="nonzero"/><path fill="#000000" d="M 221.644531 157.550781 C 231.800781 157.300781 241.957031 157.039062 252.105469 156.570312 C 263.054688 156.199219 274.035156 156.355469 284.949219 157.363281 C 294.390625 158.1875 303.816406 159.195312 313.210938 160.429688 C 318.167969 161.097656 323.117188 161.8125 328.019531 162.789062 C 335.285156 164.199219 342.632812 165.636719 349.445312 168.617188 C 351.496094 169.527344 353.496094 170.550781 355.398438 171.742188 C 351.53125 170.253906 347.566406 168.984375 343.488281 168.207031 C 341.757812 167.855469 339.996094 167.679688 338.261719 167.335938 C 336.296875 167.175781 334.320312 167.351562 332.351562 167.328125 C 326.226562 167.375 320.085938 167.570312 314.011719 168.398438 C 313.21875 168.523438 312.300781 168.667969 311.808594 169.371094 C 311.367188 170.066406 311.699219 170.914062 312.015625 171.585938 C 314.121094 175.292969 316.007812 179.113281 317.960938 182.898438 C 319.300781 185.566406 320.695312 188.207031 321.992188 190.898438 C 316.675781 182.4375 309.339844 175.273438 300.839844 170.015625 C 299.386719 169.125 297.902344 168.277344 296.359375 167.550781 C 294.261719 166.585938 291.992188 166.0625 289.71875 165.703125 C 285.34375 165.136719 281.027344 164.207031 276.679688 163.488281 C 255.941406 159.902344 234.917969 157.800781 213.863281 157.765625 C 216.453125 157.585938 219.050781 157.625 221.644531 157.550781 Z M 221.644531 157.550781 " fill-opacity="1" fill-rule="nonzero"/><path fill="#000000" d="M 273.410156 169.03125 C 276.695312 169.71875 280.007812 170.910156 282.53125 173.195312 C 283.992188 174.496094 285.070312 176.226562 285.535156 178.125 C 285.84375 179.371094 285.683594 180.773438 284.910156 181.828125 C 283.972656 183.113281 282.476562 183.859375 280.996094 184.34375 C 282.355469 183.308594 283.753906 182.140625 284.324219 180.472656 C 284.871094 178.914062 284.359375 177.195312 283.402344 175.914062 C 281.910156 173.878906 279.792969 172.410156 277.644531 171.136719 C 276.28125 170.34375 274.863281 169.644531 273.410156 169.03125 Z M 273.410156 169.03125 " fill-opacity="1" fill-rule="nonzero"/><path fill="#000000" d="M 336.566406 169.019531 C 337.476562 168.90625 338.402344 168.859375 339.320312 168.960938 C 343.65625 169.832031 348.039062 170.582031 352.25 171.964844 C 353.480469 172.371094 354.714844 172.867188 355.71875 173.707031 C 357.0625 174.761719 357.921875 176.296875 358.472656 177.886719 C 359.445312 180.738281 360.464844 183.582031 361.167969 186.515625 C 361.453125 187.765625 361.777344 189.164062 361.125 190.359375 C 360.75 191.128906 359.855469 191.507812 359.03125 191.457031 C 350.75 190.828125 342.449219 190.5 334.144531 190.367188 C 332.019531 190.28125 329.820312 190.570312 327.773438 189.867188 C 325.472656 189.074219 323.792969 187.175781 322.4375 185.242188 C 320.21875 182.019531 318.238281 178.636719 316.394531 175.191406 C 315.824219 174.027344 315.289062 172.691406 315.621094 171.382812 C 315.882812 170.421875 316.914062 169.996094 317.824219 169.933594 C 324.054688 169.320312 330.320312 169.328125 336.566406 169.019531 Z M 336.566406 169.019531 " fill-opacity="1" fill-rule="nonzero"/><path fill="#000000" d="M 268.273438 169.234375 C 271.515625 168.976562 274.582031 170.441406 277.296875 172.054688 C 279.027344 173.105469 280.710938 174.347656 281.882812 176.027344 C 282.835938 177.390625 283.324219 179.121094 283.015625 180.773438 C 282.570312 182.261719 281.207031 183.292969 279.761719 183.722656 C 277.914062 184.269531 275.929688 184.191406 274.054688 183.835938 C 269.617188 182.976562 265.785156 179.761719 263.984375 175.652344 C 263.425781 174.417969 263.34375 172.867188 264.234375 171.765625 C 265.25 170.53125 266.613281 169.382812 268.273438 169.234375 Z M 268.273438 169.234375 " fill-opacity="1" fill-rule="nonzero"/><path fill="#000000" d="M 289.4375 169.320312 C 292.644531 168.777344 295.859375 170.03125 298.46875 171.828125 C 300.136719 172.96875 301.613281 174.359375 302.980469 175.835938 C 304.230469 177.121094 305.027344 178.792969 305.46875 180.515625 C 305.773438 181.902344 305.792969 183.507812 304.882812 184.683594 C 303.808594 186.039062 301.949219 186.476562 300.296875 186.441406 C 295.855469 186.019531 291.640625 183.617188 289.019531 180.015625 C 288.066406 178.722656 287.296875 177.292969 286.71875 175.796875 C 286.253906 174.421875 286.125 172.863281 286.707031 171.5 C 287.183594 170.382812 288.238281 169.539062 289.4375 169.320312 Z M 289.4375 169.320312 " fill-opacity="1" fill-rule="nonzero"/><path fill="#000000" d="M 296.882812 169.804688 C 299.710938 171.335938 302.535156 172.941406 304.964844 175.074219 C 306.1875 176.179688 307.363281 177.421875 308.011719 178.964844 C 308.507812 180.117188 308.566406 181.5 307.988281 182.632812 C 307.550781 183.566406 306.777344 184.273438 305.976562 184.894531 C 306.808594 183.382812 307.011719 181.550781 306.460938 179.910156 C 305.609375 177.289062 303.679688 175.199219 301.675781 173.386719 C 300.195312 172.039062 298.519531 170.9375 296.882812 169.804688 Z M 296.882812 169.804688 " fill-opacity="1" fill-rule="nonzero"/><path fill="#000000" d="M 359.300781 175.800781 C 359.382812 175.757812 359.542969 175.671875 359.625 175.628906 C 360.410156 175.796875 361.015625 176.386719 361.582031 176.925781 C 363.222656 178.664062 364.363281 180.800781 365.332031 182.96875 C 365.96875 184.480469 366.679688 185.996094 366.90625 187.636719 C 366.976562 188.339844 367.042969 189.175781 366.519531 189.734375 C 366.191406 189.949219 365.832031 189.679688 365.585938 189.472656 C 363.453125 187.375 362.390625 184.496094 361.046875 181.886719 C 360.335938 180.371094 359.570312 178.859375 359.175781 177.226562 C 359.101562 176.761719 358.964844 176.191406 359.300781 175.800781 Z M 359.300781 175.800781 " fill-opacity="1" fill-rule="nonzero"/><path fill="#000000" d="M 216.191406 180.976562 C 219.78125 180.335938 223.578125 180.363281 227.011719 181.699219 C 230.027344 182.828125 232.632812 184.890625 234.640625 187.382812 C 237.148438 190.492188 238.816406 194.195312 239.929688 198.007812 C 241.121094 202.191406 241.695312 206.554688 241.636719 210.902344 C 241.414062 214.777344 240.898438 218.648438 239.871094 222.398438 C 238.898438 225.917969 237.449219 229.351562 235.230469 232.273438 C 233.28125 234.855469 230.6875 236.976562 227.6875 238.222656 C 224.285156 239.660156 220.484375 240.003906 216.839844 239.527344 C 220.011719 239.222656 223.15625 238.199219 225.722656 236.277344 C 228.628906 234.128906 230.722656 231.054688 232.15625 227.773438 C 234.015625 223.511719 234.945312 218.902344 235.484375 214.304688 C 236.066406 209.828125 235.984375 205.28125 235.421875 200.804688 C 234.933594 197.117188 234.03125 193.433594 232.3125 190.109375 C 230.832031 187.253906 228.664062 184.699219 225.859375 183.070312 C 222.96875 181.339844 219.523438 180.761719 216.191406 180.976562 Z M 216.191406 180.976562 " fill-opacity="1" fill-rule="nonzero"/><path fill="#000000" d="M 96.214844 190.9375 C 97.878906 193.789062 99.667969 196.613281 102.011719 198.964844 C 103.378906 200.3125 104.960938 201.472656 106.765625 202.160156 C 108.660156 202.910156 110.710938 203.097656 112.726562 203.242188 C 137.148438 204.722656 161.574219 206.105469 186 207.53125 C 187.480469 207.667969 188.980469 207.59375 190.449219 207.855469 C 178.878906 207.597656 167.304688 207.488281 155.730469 207.277344 C 140.871094 207.066406 126.007812 206.816406 111.144531 206.601562 C 109.222656 206.519531 107.265625 206.699219 105.371094 206.292969 C 102.53125 205.660156 100.316406 203.300781 99.433594 200.589844 C 98.375 197.367188 97.222656 194.171875 96.214844 190.9375 Z M 96.214844 190.9375 " fill-opacity="1" fill-rule="nonzero"/><path fill="#000000" d="M 113.730469 211.121094 C 114.589844 211.019531 115.441406 210.816406 116.3125 210.824219 C 132.441406 211.457031 148.574219 212.035156 164.707031 212.511719 C 170.546875 212.65625 176.386719 212.855469 182.234375 212.871094 C 182.886719 212.886719 183.539062 212.945312 184.1875 213.03125 C 181.871094 212.972656 179.558594 213.226562 177.246094 213.257812 C 162.585938 213.851562 147.910156 213.890625 133.242188 213.824219 C 121.679688 213.769531 110.121094 213.566406 98.566406 213.292969 C 103.613281 212.527344 108.675781 211.851562 113.730469 211.121094 Z M 113.730469 211.121094 " fill-opacity="1" fill-rule="nonzero"/><path fill="#000000" d="M 249.28125 212.898438 C 249.414062 212.546875 249.804688 212.605469 250.105469 212.605469 C 258.757812 213.019531 267.417969 213.390625 276.082031 213.1875 C 277.433594 215.855469 279.75 218.046875 282.578125 219.078125 C 284.410156 219.777344 286.386719 220.054688 288.34375 219.96875 C 303.980469 220.953125 319.648438 221.765625 335.328125 221.542969 C 340.910156 221.335938 346.484375 221.003906 352.046875 220.488281 C 356.371094 220.066406 360.695312 219.554688 364.953125 218.65625 C 366.78125 218.253906 368.617188 217.808594 370.351562 217.078125 C 371.25 216.683594 372.199219 216.238281 372.75 215.378906 C 373.644531 216.527344 374.042969 217.953125 374.453125 219.324219 C 374.832031 220.621094 374.582031 222.105469 373.683594 223.136719 C 372.390625 224.652344 370.476562 225.417969 368.632812 226.042969 C 364.789062 227.253906 360.773438 227.78125 356.78125 228.25 C 346.425781 229.339844 336 229.648438 325.597656 229.996094 C 304.074219 230.699219 282.515625 230.066406 261.0625 228.25 C 257.605469 227.9375 254.148438 227.621094 250.703125 227.214844 C 250.433594 227.136719 249.988281 227.179688 249.941406 226.816406 C 249.953125 222.171875 249.703125 217.519531 249.28125 212.898438 Z M 249.28125 212.898438 " fill-opacity="1" fill-rule="nonzero"/><path fill="#000000" d="M 234.1875 236.136719 C 240.023438 231.117188 243.011719 223.40625 243.339844 215.84375 C 243.859375 217.929688 243.835938 220.101562 243.972656 222.238281 C 244.042969 225.078125 244.132812 227.929688 243.96875 230.769531 C 244.089844 231.355469 244.820312 231.515625 245.332031 231.628906 C 247.8125 232.003906 250.332031 231.96875 252.832031 232.164062 C 252.128906 233.335938 251.066406 234.234375 250.109375 235.195312 C 248.625 236.617188 247.074219 237.972656 245.488281 239.277344 C 243.664062 240.757812 241.171875 240.65625 238.964844 240.9375 C 234.21875 241.273438 229.4375 241.628906 224.691406 241.191406 C 228.15625 240.179688 231.449219 238.503906 234.1875 236.136719 Z M 234.1875 236.136719 " fill-opacity="1" fill-rule="nonzero"/><path fill="#000000" d="M 61.140625 219.746094 C 65.539062 220.085938 69.914062 220.644531 74.308594 221.050781 C 94.601562 223.09375 114.910156 225.042969 135.234375 226.808594 C 148.828125 227.976562 162.429688 229.089844 176.050781 229.875 C 179.394531 230.007812 182.730469 230.261719 186.078125 230.285156 C 180.679688 230.363281 175.28125 230.214844 169.882812 230.175781 C 156.207031 230.0625 142.535156 229.953125 128.863281 229.894531 C 127.882812 229.875 126.902344 229.929688 125.925781 229.855469 C 104.328125 226.503906 82.742188 223.078125 61.140625 219.746094 Z M 61.140625 219.746094 " fill-opacity="1" fill-rule="nonzero"/><g clip-path="url(#7924a595bf)"><path fill="#000000" d="M 337.320312 233.246094 C 341.550781 233.128906 345.777344 232.9375 349.996094 232.582031 C 349.269531 233.902344 348.035156 234.835938 346.90625 235.789062 C 341.660156 239.871094 335.246094 242.625 328.566406 243.011719 C 324.300781 243.253906 319.988281 242.414062 316.132812 240.59375 C 312.40625 238.863281 309.105469 236.3125 306.265625 233.371094 C 316.617188 233.496094 326.972656 233.519531 337.320312 233.246094 Z M 337.320312 233.246094 " fill-opacity="1" fill-rule="nonzero"/></g></svg>