<svg xmlns="http://www.w3.org/2000/svg" xmlns:xlink="http://www.w3.org/1999/xlink" width="1000" zoomAndPan="magnify" viewBox="0 0 750 374.999991" height="500" preserveAspectRatio="xMidYMid meet" version="1.0"><defs><g/><clipPath id="3f3e9a1c68"><path d="M 0 143.460938 L 114 143.460938 L 114 198 L 0 198 Z M 0 143.460938 " clip-rule="nonzero"/></clipPath><clipPath id="d9d9e4dcb4"><path d="M 240 222 L 275 222 L 275 231.210938 L 240 231.210938 Z M 240 222 " clip-rule="nonzero"/></clipPath></defs><g clip-path="url(#3f3e9a1c68)"><path fill="#000000" d="M 107.355469 144.234375 C 109.472656 143.886719 111.601562 143.492188 113.753906 143.464844 C 107.546875 144.421875 101.40625 145.9375 95.542969 148.203125 C 90.136719 150.289062 85.03125 153.144531 80.417969 156.652344 C 76.125 159.859375 72.28125 163.605469 68.199219 167.074219 C 63.609375 170.882812 58.589844 174.152344 53.402344 177.089844 C 42.277344 183.332031 30.386719 188.101562 18.285156 192.078125 C 13.066406 193.769531 7.804688 195.332031 2.484375 196.679688 C 1.699219 196.859375 0.929688 197.128906 0.121094 197.179688 C 3.15625 196.441406 6.136719 195.488281 9.128906 194.605469 C 21.8125 190.707031 34.289062 186.007812 46.074219 179.878906 C 54.386719 175.53125 62.359375 170.429688 69.351562 164.144531 C 71.015625 162.703125 72.519531 161.082031 74.207031 159.664062 C 83.546875 151.574219 95.238281 146.425781 107.355469 144.234375 Z M 107.355469 144.234375 " fill-opacity="1" fill-rule="nonzero"/></g><path fill="#000000" d="M 136.773438 145.21875 C 150.222656 144.339844 163.726562 145.382812 177.050781 147.265625 C 180.53125 147.53125 183.785156 148.867188 187.066406 149.957031 C 197.339844 153.480469 207.507812 157.355469 217.363281 161.929688 C 208.949219 161.175781 200.488281 160.929688 192.039062 160.90625 C 181.941406 160.863281 171.84375 161.15625 161.761719 161.65625 C 159.359375 161.789062 156.929688 161.863281 154.554688 161.425781 C 152.667969 161.074219 150.8125 160.355469 149.332031 159.105469 C 145.320312 155.511719 141.507812 151.667969 137.171875 148.449219 C 136.421875 147.859375 135.492188 147.453125 134.953125 146.636719 C 134.746094 146.363281 134.707031 145.914062 135.023438 145.707031 C 135.527344 145.34375 136.175781 145.289062 136.773438 145.21875 Z M 136.773438 145.21875 " fill-opacity="1" fill-rule="nonzero"/><path fill="#000000" d="M 115.238281 147.664062 C 118.671875 147.3125 122.191406 147.476562 125.511719 148.460938 C 129.933594 149.71875 133.921875 152.265625 137.167969 155.492188 C 139.894531 158.183594 142.109375 161.351562 143.964844 164.691406 C 130.671875 165.230469 117.378906 165.722656 104.089844 166.265625 C 102.261719 162.292969 99.902344 158.515625 96.792969 155.417969 C 96.28125 154.878906 95.574219 154.449219 95.347656 153.703125 C 95.304688 153.113281 95.953125 152.859375 96.390625 152.644531 C 98.636719 151.699219 100.945312 150.921875 103.273438 150.199219 C 107.175781 149.011719 111.171875 148.0625 115.238281 147.664062 Z M 115.238281 147.664062 " fill-opacity="1" fill-rule="nonzero"/><path fill="#000000" d="M 89.226562 155.960938 C 90.101562 155.527344 90.957031 154.921875 91.964844 154.886719 C 92.738281 154.964844 93.332031 155.535156 93.914062 156 C 95.621094 157.539062 96.949219 159.4375 98.207031 161.34375 C 98.910156 162.429688 99.578125 163.535156 100.195312 164.671875 C 100.402344 165.085938 100.640625 165.589844 100.433594 166.050781 C 100.125 166.523438 99.488281 166.46875 98.996094 166.484375 C 95.351562 166.433594 91.707031 166.5 88.066406 166.605469 C 84.582031 166.761719 81.085938 166.949219 77.636719 167.511719 C 76.382812 167.730469 75.109375 167.964844 73.941406 168.496094 C 76.597656 163.960938 80.746094 160.476562 85.304688 157.953125 C 86.578125 157.226562 87.910156 156.609375 89.226562 155.960938 Z M 89.226562 155.960938 " fill-opacity="1" fill-rule="nonzero"/><path fill="#000000" d="M 173.773438 163.910156 C 181.734375 163.714844 189.699219 163.511719 197.65625 163.140625 C 206.242188 162.851562 214.851562 162.972656 223.40625 163.765625 C 230.8125 164.410156 238.199219 165.203125 245.566406 166.171875 C 249.453125 166.695312 253.332031 167.257812 257.179688 168.027344 C 262.875 169.132812 268.636719 170.257812 273.976562 172.601562 C 275.582031 173.316406 277.152344 174.121094 278.644531 175.054688 C 275.613281 173.886719 272.503906 172.890625 269.304688 172.277344 C 267.949219 172 266.566406 171.867188 265.207031 171.59375 C 263.667969 171.46875 262.117188 171.609375 260.574219 171.589844 C 255.773438 171.625 250.957031 171.777344 246.195312 172.429688 C 245.574219 172.527344 244.851562 172.640625 244.464844 173.191406 C 244.121094 173.738281 244.382812 174.402344 244.628906 174.933594 C 246.277344 177.839844 247.757812 180.84375 249.292969 183.816406 C 250.339844 185.910156 251.433594 187.984375 252.453125 190.09375 C 248.28125 183.453125 242.53125 177.828125 235.867188 173.699219 C 234.726562 173 233.5625 172.335938 232.351562 171.765625 C 230.707031 171.007812 228.929688 170.59375 227.144531 170.3125 C 223.714844 169.867188 220.332031 169.136719 216.921875 168.574219 C 200.664062 165.757812 184.179688 164.105469 167.671875 164.082031 C 169.703125 163.9375 171.738281 163.96875 173.773438 163.910156 Z M 173.773438 163.910156 " fill-opacity="1" fill-rule="nonzero"/><path fill="#000000" d="M 214.359375 172.925781 C 216.9375 173.464844 219.53125 174.402344 221.507812 176.195312 C 222.65625 177.214844 223.5 178.574219 223.867188 180.066406 C 224.109375 181.046875 223.984375 182.144531 223.375 182.972656 C 222.640625 183.984375 221.46875 184.570312 220.308594 184.949219 C 221.371094 184.136719 222.46875 183.21875 222.917969 181.910156 C 223.347656 180.6875 222.945312 179.335938 222.195312 178.328125 C 221.023438 176.730469 219.363281 175.582031 217.679688 174.582031 C 216.609375 173.957031 215.5 173.40625 214.359375 172.925781 Z M 214.359375 172.925781 " fill-opacity="1" fill-rule="nonzero"/><path fill="#000000" d="M 263.878906 172.917969 C 264.59375 172.828125 265.316406 172.792969 266.039062 172.871094 C 269.4375 173.554688 272.875 174.144531 276.175781 175.230469 C 277.140625 175.550781 278.109375 175.9375 278.894531 176.597656 C 279.949219 177.425781 280.621094 178.628906 281.054688 179.878906 C 281.820312 182.121094 282.617188 184.351562 283.167969 186.65625 C 283.390625 187.636719 283.644531 188.734375 283.132812 189.675781 C 282.839844 190.277344 282.140625 190.574219 281.492188 190.535156 C 275 190.039062 268.488281 189.785156 261.980469 189.679688 C 260.3125 189.613281 258.589844 189.839844 256.984375 189.285156 C 255.179688 188.664062 253.863281 187.171875 252.800781 185.65625 C 251.0625 183.125 249.507812 180.46875 248.0625 177.761719 C 247.613281 176.847656 247.195312 175.800781 247.457031 174.773438 C 247.660156 174.019531 248.46875 173.683594 249.183594 173.632812 C 254.066406 173.152344 258.980469 173.160156 263.878906 172.917969 Z M 263.878906 172.917969 " fill-opacity="1" fill-rule="nonzero"/><path fill="#000000" d="M 210.332031 173.085938 C 212.875 172.882812 215.28125 174.03125 217.40625 175.300781 C 218.765625 176.125 220.082031 177.101562 221.003906 178.417969 C 221.75 179.488281 222.132812 180.847656 221.890625 182.148438 C 221.539062 183.316406 220.472656 184.125 219.339844 184.464844 C 217.890625 184.890625 216.335938 184.832031 214.867188 184.550781 C 211.386719 183.875 208.378906 181.351562 206.96875 178.125 C 206.53125 177.15625 206.464844 175.9375 207.164062 175.074219 C 207.960938 174.105469 209.03125 173.199219 210.332031 173.085938 Z M 210.332031 173.085938 " fill-opacity="1" fill-rule="nonzero"/><path fill="#000000" d="M 226.925781 173.152344 C 229.441406 172.726562 231.960938 173.710938 234.007812 175.125 C 235.3125 176.015625 236.472656 177.109375 237.542969 178.269531 C 238.523438 179.277344 239.148438 180.59375 239.496094 181.945312 C 239.734375 183.03125 239.75 184.292969 239.035156 185.214844 C 238.191406 186.28125 236.738281 186.625 235.4375 186.597656 C 231.957031 186.265625 228.652344 184.378906 226.597656 181.550781 C 225.851562 180.535156 225.25 179.414062 224.796875 178.238281 C 224.429688 177.160156 224.328125 175.933594 224.785156 174.867188 C 225.15625 173.984375 225.988281 173.324219 226.925781 173.152344 Z M 226.925781 173.152344 " fill-opacity="1" fill-rule="nonzero"/><path fill="#000000" d="M 232.765625 173.53125 C 234.980469 174.734375 237.195312 175.996094 239.101562 177.667969 C 240.058594 178.539062 240.980469 179.515625 241.488281 180.722656 C 241.878906 181.628906 241.925781 182.714844 241.472656 183.605469 C 241.128906 184.339844 240.519531 184.894531 239.894531 185.382812 C 240.546875 184.195312 240.703125 182.757812 240.273438 181.46875 C 239.605469 179.410156 238.09375 177.769531 236.519531 176.34375 C 235.359375 175.289062 234.046875 174.425781 232.765625 173.53125 Z M 232.765625 173.53125 " fill-opacity="1" fill-rule="nonzero"/><path fill="#000000" d="M 281.703125 178.242188 C 281.765625 178.207031 281.894531 178.140625 281.957031 178.105469 C 282.574219 178.238281 283.046875 178.703125 283.492188 179.125 C 284.78125 180.488281 285.675781 182.167969 286.429688 183.871094 C 286.933594 185.058594 287.488281 186.246094 287.667969 187.535156 C 287.722656 188.089844 287.773438 188.746094 287.363281 189.183594 C 287.105469 189.351562 286.824219 189.140625 286.632812 188.976562 C 284.960938 187.332031 284.128906 185.070312 283.070312 183.019531 C 282.515625 181.832031 281.914062 180.644531 281.605469 179.359375 C 281.546875 178.996094 281.4375 178.550781 281.703125 178.242188 Z M 281.703125 178.242188 " fill-opacity="1" fill-rule="nonzero"/><path fill="#000000" d="M 169.496094 182.304688 C 172.308594 181.800781 175.285156 181.824219 177.980469 182.871094 C 180.34375 183.761719 182.386719 185.378906 183.964844 187.335938 C 185.925781 189.777344 187.238281 192.6875 188.109375 195.679688 C 189.042969 198.964844 189.492188 202.390625 189.445312 205.804688 C 189.273438 208.847656 188.867188 211.886719 188.0625 214.832031 C 187.300781 217.59375 186.164062 220.289062 184.425781 222.585938 C 182.898438 224.613281 180.859375 226.277344 178.507812 227.257812 C 175.84375 228.382812 172.863281 228.65625 170.003906 228.28125 C 172.492188 228.042969 174.957031 227.238281 176.96875 225.730469 C 179.25 224.042969 180.890625 221.628906 182.015625 219.054688 C 183.472656 215.703125 184.199219 212.085938 184.625 208.476562 C 185.082031 204.960938 185.015625 201.390625 184.574219 197.875 C 184.191406 194.980469 183.484375 192.085938 182.136719 189.476562 C 180.976562 187.234375 179.273438 185.230469 177.078125 183.953125 C 174.808594 182.59375 172.109375 182.136719 169.496094 182.304688 Z M 169.496094 182.304688 " fill-opacity="1" fill-rule="nonzero"/><path fill="#000000" d="M 75.425781 190.125 C 76.730469 192.367188 78.132812 194.582031 79.972656 196.433594 C 81.042969 197.488281 82.285156 198.398438 83.699219 198.941406 C 85.183594 199.527344 86.792969 199.675781 88.371094 199.789062 C 107.519531 200.953125 126.671875 202.039062 145.824219 203.15625 C 146.984375 203.265625 148.160156 203.207031 149.3125 203.410156 C 140.242188 203.210938 131.164062 203.125 122.089844 202.957031 C 110.4375 202.792969 98.785156 202.59375 87.132812 202.429688 C 85.625 202.363281 84.089844 202.503906 82.605469 202.1875 C 80.378906 201.6875 78.640625 199.835938 77.949219 197.707031 C 77.121094 195.175781 76.214844 192.667969 75.425781 190.125 Z M 75.425781 190.125 " fill-opacity="1" fill-rule="nonzero"/><path fill="#000000" d="M 89.160156 205.976562 C 89.832031 205.894531 90.5 205.734375 91.183594 205.742188 C 103.828125 206.238281 116.476562 206.695312 129.128906 207.066406 C 133.707031 207.183594 138.289062 207.335938 142.871094 207.351562 C 143.382812 207.363281 143.894531 207.410156 144.402344 207.476562 C 142.585938 207.429688 140.773438 207.628906 138.957031 207.652344 C 127.464844 208.121094 115.957031 208.148438 104.457031 208.097656 C 95.394531 208.054688 86.328125 207.898438 77.269531 207.683594 C 81.226562 207.082031 85.199219 206.550781 89.160156 205.976562 Z M 89.160156 205.976562 " fill-opacity="1" fill-rule="nonzero"/><path fill="#000000" d="M 195.441406 207.371094 C 195.546875 207.097656 195.851562 207.144531 196.085938 207.144531 C 202.871094 207.46875 209.660156 207.757812 216.453125 207.601562 C 217.515625 209.695312 219.332031 211.414062 221.546875 212.222656 C 222.984375 212.773438 224.535156 212.992188 226.066406 212.921875 C 238.328125 213.699219 250.613281 214.335938 262.90625 214.160156 C 267.285156 213.996094 271.65625 213.734375 276.015625 213.332031 C 279.40625 213 282.796875 212.597656 286.136719 211.894531 C 287.570312 211.574219 289.007812 211.226562 290.371094 210.65625 C 291.074219 210.34375 291.820312 209.992188 292.246094 209.320312 C 292.949219 210.21875 293.265625 211.339844 293.585938 212.417969 C 293.878906 213.4375 293.683594 214.601562 292.980469 215.414062 C 291.96875 216.601562 290.464844 217.203125 289.019531 217.691406 C 286.007812 218.644531 282.859375 219.058594 279.730469 219.425781 C 271.609375 220.28125 263.433594 220.523438 255.277344 220.796875 C 238.402344 221.351562 221.5 220.851562 204.679688 219.425781 C 201.964844 219.183594 199.257812 218.933594 196.554688 218.613281 C 196.34375 218.554688 195.996094 218.585938 195.960938 218.300781 C 195.96875 214.65625 195.773438 211 195.441406 207.371094 Z M 195.441406 207.371094 " fill-opacity="1" fill-rule="nonzero"/><path fill="#000000" d="M 183.605469 225.617188 C 188.179688 221.679688 190.527344 215.621094 190.785156 209.683594 C 191.1875 211.324219 191.171875 213.027344 191.28125 214.707031 C 191.332031 216.9375 191.40625 219.175781 191.273438 221.402344 C 191.371094 221.863281 191.945312 221.988281 192.34375 222.078125 C 194.289062 222.371094 196.265625 222.347656 198.226562 222.5 C 197.671875 223.421875 196.839844 224.125 196.089844 224.878906 C 194.925781 225.996094 193.710938 227.0625 192.464844 228.085938 C 191.039062 229.25 189.082031 229.167969 187.351562 229.386719 C 183.632812 229.652344 179.882812 229.929688 176.160156 229.585938 C 178.878906 228.796875 181.460938 227.476562 183.605469 225.617188 Z M 183.605469 225.617188 " fill-opacity="1" fill-rule="nonzero"/><path fill="#000000" d="M 47.925781 212.746094 C 51.375 213.015625 54.804688 213.453125 58.25 213.773438 C 74.164062 215.378906 90.085938 216.910156 106.019531 218.296875 C 116.679688 219.210938 127.34375 220.085938 138.023438 220.703125 C 140.644531 220.804688 143.261719 221.003906 145.882812 221.023438 C 141.652344 221.085938 137.417969 220.96875 133.1875 220.9375 C 122.464844 220.851562 111.746094 220.761719 101.023438 220.71875 C 100.253906 220.703125 99.488281 220.742188 98.722656 220.6875 C 81.789062 218.054688 64.863281 215.367188 47.925781 212.746094 Z M 47.925781 212.746094 " fill-opacity="1" fill-rule="nonzero"/><g clip-path="url(#d9d9e4dcb4)"><path fill="#000000" d="M 264.46875 223.351562 C 267.789062 223.257812 271.101562 223.105469 274.40625 222.828125 C 273.839844 223.863281 272.871094 224.597656 271.984375 225.34375 C 267.871094 228.550781 262.84375 230.710938 257.605469 231.015625 C 254.261719 231.207031 250.882812 230.550781 247.855469 229.117188 C 244.9375 227.757812 242.347656 225.757812 240.121094 223.445312 C 248.238281 223.546875 256.355469 223.5625 264.46875 223.351562 Z M 264.46875 223.351562 " fill-opacity="1" fill-rule="nonzero"/></g><g fill="#2b59ff" fill-opacity="1"><g transform="translate(330.011853, 228.223828)"><g><path d="M 63.53125 0 L 51.71875 -22.421875 L 63.53125 -22.421875 L 63.53125 -80.410156 L 3.132812 -80.410156 L 3.132812 0 L 23.265625 0 L 23.265625 -22.421875 L 31.945312 -22.421875 L 43.398438 0 Z M 43.398438 -40.746094 L 23.265625 -40.746094 L 23.265625 -61.964844 L 43.398438 -61.964844 Z M 43.398438 -40.746094 "/></g></g></g><g fill="#2b59ff" fill-opacity="1"><g transform="translate(396.676453, 228.223828)"><g><path d="M 63.292969 0 L 63.292969 -18.324219 L 23.265625 -18.324219 L 23.265625 -31.585938 L 63.292969 -31.585938 L 63.292969 -49.308594 L 23.265625 -49.308594 L 23.265625 -61.964844 L 63.292969 -61.964844 L 63.292969 -80.410156 L 3.132812 -80.410156 L 3.132812 0 Z M 63.292969 0 "/></g></g></g><g fill="#2b59ff" fill-opacity="1"><g transform="translate(463.099949, 228.223828)"><g><path d="M 62.207031 0 L 62.207031 -80.410156 L 1.808594 -80.410156 L 1.808594 -61.964844 L 5.785156 -61.964844 L 5.785156 0 L 21.941406 0 L 21.941406 -61.964844 L 42.074219 -61.964844 L 42.074219 0 Z M 62.207031 0 "/></g></g></g><g fill="#2b59ff" fill-opacity="1"><g transform="translate(528.438476, 228.223828)"><g><path d="M 62.207031 -61.964844 L 62.207031 -80.410156 L 1.808594 -80.410156 L 1.808594 -61.964844 L 22.0625 -61.964844 L 22.0625 0 L 42.195312 0 L 42.195312 -61.964844 Z M 62.207031 -61.964844 "/></g></g></g><g fill="#000000" fill-opacity="1"><g transform="translate(592.441523, 228.223828)"><g><path d="M 23.265625 0 L 23.265625 -80.410156 L 3.132812 -80.410156 L 3.132812 0 Z M 23.265625 0 "/></g></g></g><g fill="#000000" fill-opacity="1"><g transform="translate(618.842148, 228.223828)"><g><path d="M 63.53125 0 L 63.53125 -31.585938 L 43.398438 -31.585938 L 43.398438 -18.324219 L 23.265625 -18.324219 L 23.265625 -61.964844 L 63.53125 -61.964844 L 63.53125 -80.410156 L 3.132812 -80.410156 L 3.132812 0 Z M 63.53125 0 "/></g></g></g><g fill="#000000" fill-opacity="1"><g transform="translate(685.506748, 228.223828)"><g><path d="M 63.53125 0 L 63.53125 -80.410156 L 3.132812 -80.410156 L 3.132812 0 Z M 43.398438 -18.324219 L 23.265625 -18.324219 L 23.265625 -61.964844 L 43.398438 -61.964844 Z M 43.398438 -18.324219 "/></g></g></g></svg>